<svg xmlns="http://www.w3.org/2000/svg" viewBox="0 0 200 200">
  <rect width="200" height="200" fill="#A0AEC0"/>
  <path d="M46 100 Q46 40 100 40 Q154 40 154 100 L154 165 Q146 150 136 165 Q126 150 116 165 Q106 150 96 165 Q86 150 76 165 Q66 150 56 165 Q46 150 46 165 Z" fill="#F5F7FA"/>
  <path d="M75 90 Q80 82 87 89" stroke="#2b2b2b" stroke-width="4" fill="none" stroke-linecap="round"/>
  <path d="M113 89 Q120 82 125 90" stroke="#2b2b2b" stroke-width="4" fill="none" stroke-linecap="round"/>
  <path d="M76 116 Q100 134 124 116 Q124 132 100 136 Q76 132 76 116 Z" fill="#2b2b2b"/>
  <path d="M92 133 Q100 152 108 133 Z" fill="#E8788C"/>
</svg>
